{
  "accessors": [
    {
      "bufferView": 2,
      "componentType": 5126,
      "count": 4,
      "max": [
        85.64978790283203,
        0.04112371802330017,
        85.63685607910156
      ],
      "min": [
        -85.64978790283203,
        0.04112371802330017,
        -85.66272735595703
      ],
      "type": "VEC3"
    },
    {
      "bufferView": 2,
      "byteOffset": 48,
      "componentType": 5126,
      "count": 4,
      "max": [
        0.0,
        1.0,
        0.0
      ],
      "min": [
        0.0,
        1.0,
        0.0
      ],
      "type": "VEC3"
    },
    {
      "bufferView": 3,
      "componentType": 5126,
      "count": 4,
      "max": [
        -1.0,
        0.0,
        -1.783314189651719e-07,
        1.0
      ],
      "min": [
        -1.0,
        0.0,
        -3.579856411306537e-07,
        1.0
      ],
      "type": "VEC4"
    },
    {
      "bufferView": 1,
      "componentType": 5126,
      "count": 4,
      "max": [
        0.999500572681427,
        0.999500572681427
      ],
      "min": [
        0.000499427318572998,
        0.0004993677139282227
      ],
      "type": "VEC2"
    },
    {
      "bufferView": 0,
      "componentType": 5125,
      "count": 6,
      "type": "SCALAR"
    },
    {
      "bufferView": 2,
      "byteOffset": 96,
      "componentType": 5126,
      "count": 96,
      "max": [
        53.261322021484375,
        0.48406243324279785,
        28.452842712402344
      ],
      "min": [
        52.86132049560547,
        0.041925907135009766,
        25.29733657836914
      ],
      "type": "VEC3"
    },
    {
      "bufferView": 2,
      "byteOffset": 1248,
      "componentType": 5126,
      "count": 96,
      "max": [
        1.0,
        0.9966984987258911,
        0.9999997615814209
      ],
      "min": [
        -1.0,
        -1.0,
        -0.9999997019767761
      ],
      "type": "VEC3"
    },
    {
      "bufferView": 3,
      "byteOffset": 64,
      "componentType": 5126,
      "count": 96,
      "max": [
        0.9999976754188538,
        0.999999463558197,
        1.0,
        1.0
      ],
      "min": [
        -0.9966408014297485,
        -1.0,
        -1.0,
        1.0
      ],
      "type": "VEC4"
    },
    {
      "bufferView": 1,
      "byteOffset": 32,
      "componentType": 5126,
      "count": 96,
      "max": [
        0.9519881010055542,
        0.28143900632858276
      ],
      "min": [
        0.37296032905578613,
        0.026501784101128578
      ],
      "type": "VEC2"
    },
    {
      "bufferView": 0,
      "byteOffset": 24,
      "componentType": 5125,
      "count": 228,
      "type": "SCALAR"
    },
    {
      "bufferView": 2,
      "byteOffset": 2400,
      "componentType": 5126,
      "count": 96,
      "max": [
        49.261322021484375,
        0.48406243324279785,
        28.452842712402344
      ],
      "min": [
        48.86132049560547,
        0.041925907135009766,
        25.29733657836914
      ],
      "type": "VEC3"
    },
    {
      "bufferView": 2,
      "byteOffset": 3552,
      "componentType": 5126,
      "count": 96,
      "max": [
        1.0,
        0.9966986179351807,
        0.9999997615814209
      ],
      "min": [
        -1.0,
        -1.0,
        -0.9999997019767761
      ],
      "type": "VEC3"
    },
    {
      "bufferView": 3,
      "byteOffset": 1600,
      "componentType": 5126,
      "count": 96,
      "max": [
        0.9999976754188538,
        1.0,
        1.0,
        1.0
      ],
      "min": [
        -0.9966989159584045,
        -0.9999994039535522,
        -0.8757489323616028,
        1.0
      ],
      "type": "VEC4"
    },
    {
      "bufferView": 1,
      "byteOffset": 800,
      "componentType": 5126,
      "count": 96,
      "max": [
        0.9588022828102112,
        0.28111445903778076
      ],
      "min": [
        0.15082916617393494,
        0.030358726158738136
      ],
      "type": "VEC2"
    },
    {
      "bufferView": 0,
      "byteOffset": 936,
      "componentType": 5125,
      "count": 228,
      "type": "SCALAR"
    },
    {
      "bufferView": 2,
      "byteOffset": 4704,
      "componentType": 5126,
      "count": 208,
      "max": [
        54.492916107177734,
        5.903685569763184,
        28.91552734375
      ],
      "min": [
        47.63139343261719,
        5.532978534698486,
        24.836828231811523
      ],
      "type": "VEC3"
    },
    {
      "bufferView": 2,
      "byteOffset": 7200,
      "componentType": 5126,
      "count": 208,
      "max": [
        1.0,
        1.0,
        0.9999998211860657
      ],
      "min": [
        -1.0,
        -1.0,
        -1.0
      ],
      "type": "VEC3"
    },
    {
      "bufferView": 3,
      "byteOffset": 3136,
      "componentType": 5126,
      "count": 208,
      "max": [
        1.0,
        1.0,
        1.0,
        1.0
      ],
      "min": [
        -0.7481486797332764,
        -1.0,
        -1.0,
        1.0
      ],
      "type": "VEC4"
    },
    {
      "bufferView": 1,
      "byteOffset": 1568,
      "componentType": 5126,
      "count": 208,
      "max": [
        0.9552785754203796,
        0.9920699000358582
      ],
      "min": [
        0.0004776605637744069,
        0.0013269054470583797
      ],
      "type": "VEC2"
    },
    {
      "bufferView": 0,
      "byteOffset": 1848,
      "componentType": 5125,
      "count": 564,
      "type": "SCALAR"
    },
    {
      "bufferView": 2,
      "byteOffset": 9696,
      "componentType": 5126,
      "count": 96,
      "max": [
        54.493072509765625,
        5.528285980224609,
        28.162303924560547
      ],
      "min": [
        47.629295349121094,
        0.48962876200675964,
        27.588809967041016
      ],
      "type": "VEC3"
    },
    {
      "bufferView": 2,
      "byteOffset": 10848,
      "componentType": 5126,
      "count": 96,
      "max": [
        0.9999232292175293,
        0.9999883770942688,
        1.0
      ],
      "min": [
        -0.9999006390571594,
        -0.9999806880950928,
        -1.0
      ],
      "type": "VEC3"
    },
    {
      "bufferView": 3,
      "byteOffset": 6464,
      "componentType": 5126,
      "count": 96,
      "max": [
        0.008038447238504887,
        0.9999944567680359,
        1.0,
        1.0
      ],
      "min": [
        -0.006790652871131897,
        -0.0071117146871984005,
        -1.0,
        1.0
      ],
      "type": "VEC4"
    },
    {
      "bufferView": 1,
      "byteOffset": 3232,
      "componentType": 5126,
      "count": 96,
      "max": [
        0.9557986855506897,
        0.8679816722869873
      ],
      "min": [
        0.0004776605637744069,
        0.0019527088152244687
      ],
      "type": "VEC2"
    },
    {
      "bufferView": 0,
      "byteOffset": 4104,
      "componentType": 5125,
      "count": 240,
      "type": "SCALAR"
    },
    {
      "bufferView": 2,
      "byteOffset": 12000,
      "componentType": 5126,
      "count": 96,
      "max": [
        54.493072509765625,
        5.528285980224609,
        27.162303924560547
      ],
      "min": [
        47.629295349121094,
        0.48962876200675964,
        26.588809967041016
      ],
      "type": "VEC3"
    },
    {
      "bufferView": 2,
      "byteOffset": 13152,
      "componentType": 5126,
      "count": 96,
      "max": [
        0.9999232292175293,
        0.9999883770942688,
        1.0
      ],
      "min": [
        -0.9999006986618042,
        -0.9999806880950928,
        -1.0
      ],
      "type": "VEC3"
    },
    {
      "bufferView": 3,
      "byteOffset": 8000,
      "componentType": 5126,
      "count": 96,
      "max": [
        0.018343789502978325,
        0.007204817142337561,
        1.0,
        1.0
      ],
      "min": [
        -0.02013338916003704,
        -0.9999943971633911,
        -1.0,
        1.0
      ],
      "type": "VEC4"
    },
    {
      "bufferView": 1,
      "byteOffset": 4000,
      "componentType": 5126,
      "count": 96,
      "max": [
        0.8318242430686951,
        0.8765292167663574
      ],
      "min": [
        0.028515441343188286,
        0.00411780783906579
      ],
      "type": "VEC2"
    },
    {
      "bufferView": 0,
      "byteOffset": 5064,
      "componentType": 5125,
      "count": 240,
      "type": "SCALAR"
    },
    {
      "bufferView": 2,
      "byteOffset": 14304,
      "componentType": 5126,
      "count": 96,
      "max": [
        54.493072509765625,
        5.528285980224609,
        26.162303924560547
      ],
      "min": [
        47.629295349121094,
        0.48962876200675964,
        25.588809967041016
      ],
      "type": "VEC3"
    },
    {
      "bufferView": 2,
      "byteOffset": 15456,
      "componentType": 5126,
      "count": 96,
      "max": [
        0.9999232292175293,
        0.9999883770942688,
        1.0
      ],
      "min": [
        -0.9999006390571594,
        -0.9999806880950928,
        -1.0
      ],
      "type": "VEC3"
    },
    {
      "bufferView": 3,
      "byteOffset": 9536,
      "componentType": 5126,
      "count": 96,
      "max": [
        0.0034502078779041767,
        0.999994695186615,
        1.0,
        1.0
      ],
      "min": [
        -0.007789808791130781,
        -0.9999943375587463,
        -1.0,
        1.0
      ],
      "type": "VEC4"
    },
    {
      "bufferView": 1,
      "byteOffset": 4768,
      "componentType": 5126,
      "count": 96,
      "max": [
        0.9443564414978027,
        0.8650972843170166
      ],
      "min": [
        0.05842248350381851,
        0.0025519488845020533
      ],
      "type": "VEC2"
    },
    {
      "bufferView": 0,
      "byteOffset": 6024,
      "componentType": 5125,
      "count": 240,
      "type": "SCALAR"
    },
    {
      "bufferView": 2,
      "byteOffset": 16608,
      "componentType": 5126,
      "count": 553,
      "max": [
        48.33159255981445,
        6.040576934814453,
        26.379737854003906
      ],
      "min": [
        48.09080505371094,
        5.863246917724609,
        26.132558822631836
      ],
      "type": "VEC3"
    },
    {
      "bufferView": 2,
      "byteOffset": 23244,
      "componentType": 5126,
      "count": 553,
      "max": [
        0.9990594983100891,
        0.995912492275238,
        0.99693363904953
      ],
      "min": [
        -0.9997109770774841,
        -0.9790272116661072,
        -0.9969339966773987
      ],
      "type": "VEC3"
    },
    {
      "bufferView": 3,
      "byteOffset": 11072,
      "componentType": 5126,
      "count": 553,
      "max": [
        0.9727401733398438,
        0.9803476929664612,
        1.0,
        1.0
      ],
      "min": [
        -0.9890854954719543,
        -0.9906734824180603,
        -1.0,
        1.0
      ],
      "type": "VEC4"
    },
    {
      "bufferView": 1,
      "byteOffset": 5536,
      "componentType": 5126,
      "count": 553,
      "max": [
        0.949732780456543,
        0.9995004534721375
      ],
      "min": [
        0.0004548649303615093,
        0.0004995004273951054
      ],
      "type": "VEC2"
    },
    {
      "bufferView": 0,
      "byteOffset": 6984,
      "componentType": 5125,
      "count": 2208,
      "type": "SCALAR"
    },
    {
      "bufferView": 2,
      "byteOffset": 29880,
      "componentType": 5126,
      "count": 808,
      "max": [
        53.54793930053711,
        8.32681655883789,
        27.562585830688477
      ],
      "min": [
        52.44099807739258,
        7.076026916503906,
        26.46687889099121
      ],
      "type": "VEC3"
    },
    {
      "bufferView": 2,
      "byteOffset": 39576,
      "componentType": 5126,
      "count": 808,
      "max": [
        0.9978411793708801,
        0.9990818500518799,
        0.9895230531692505
      ],
      "min": [
        -0.9978261590003967,
        -0.999229907989502,
        -0.9893575310707092
      ],
      "type": "VEC3"
    },
    {
      "bufferView": 3,
      "byteOffset": 19920,
      "componentType": 5126,
      "count": 808,
      "max": [
        0.9941424131393433,
        0.9968909621238708,
        0.9977710247039795,
        1.0
      ],
      "min": [
        -0.9972865581512451,
        -0.9996064305305481,
        -0.9991399645805359,
        -1.0
      ],
      "type": "VEC4"
    },
    {
      "bufferView": 1,
      "byteOffset": 9960,
      "componentType": 5126,
      "count": 808,
      "max": [
        0.9309014081954956,
        0.6582241058349609
      ],
      "min": [
        0.31892648339271545,
        0.0011195254046469927
      ],
      "type": "VEC2"
    },
    {
      "bufferView": 0,
      "byteOffset": 15816,
      "componentType": 5125,
      "count": 3720,
      "type": "SCALAR"
    },
    {
      "bufferView": 2,
      "byteOffset": 49272,
      "componentType": 5126,
      "count": 386,
      "max": [
        53.54477310180664,
        8.43382453918457,
        27.87325668334961
      ],
      "min": [
        52.4033088684082,
        7.084962844848633,
        26.126741409301758
      ],
      "type": "VEC3"
    },
    {
      "bufferView": 2,
      "byteOffset": 53904,
      "componentType": 5126,
      "count": 386,
      "max": [
        0.8277848958969116,
        0.765526533126831,
        0.9994847774505615
      ],
      "min": [
        -0.8277857899665833,
        -0.7654507160186768,
        -0.999483585357666
      ],
      "type": "VEC3"
    },
    {
      "bufferView": 3,
      "byteOffset": 32848,
      "componentType": 5126,
      "count": 386,
      "max": [
        0.719279408454895,
        0.8282829523086548,
        0.9969377517700195,
        1.0
      ],
      "min": [
        -0.7795068025588989,
        -0.8282821774482727,
        -0.99892657995224,
        1.0
      ],
      "type": "VEC4"
    },
    {
      "bufferView": 1,
      "byteOffset": 16424,
      "componentType": 5126,
      "count": 386,
      "max": [
        0.9306958913803101,
        0.9995004534721375
      ],
      "min": [
        0.14422769844532013,
        0.0004995004856027663
      ],
      "type": "VEC2"
    },
    {
      "bufferView": 0,
      "byteOffset": 30696,
      "componentType": 5125,
      "count": 1200,
      "type": "SCALAR"
    },
    {
      "bufferView": 2,
      "byteOffset": 58536,
      "componentType": 5126,
      "count": 96,
      "max": [
        53.63364791870117,
        7.247681140899658,
        27.6429443359375
      ],
      "min": [
        52.328609466552734,
        5.846569538116455,
        26.34050941467285
      ],
      "type": "VEC3"
    },
    {
      "bufferView": 2,
      "byteOffset": 59688,
      "componentType": 5126,
      "count": 96,
      "max": [
        0.9974377751350403,
        0.37842145562171936,
        0.9845107197761536
      ],
      "min": [
        -0.990494430065155,
        -0.0038254025857895613,
        -0.99944007396698
      ],
      "type": "VEC3"
    },
    {
      "bufferView": 3,
      "byteOffset": 39024,
      "componentType": 5126,
      "count": 96,
      "max": [
        0.5570300221443176,
        0.9236354827880859,
        0.8827069997787476,
        1.0
      ],
      "min": [
        -0.43148595094680786,
        -0.9999927282333374,
        -0.9041021466255188,
        1.0
      ],
      "type": "VEC4"
    },
    {
      "bufferView": 1,
      "byteOffset": 19512,
      "componentType": 5126,
      "count": 96,
      "max": [
        0.9309278130531311,
        0.6756674647331238
      ],
      "min": [
        0.0004652313655242324,
        0.0019284032750874758
      ],
      "type": "VEC2"
    },
    {
      "bufferView": 0,
      "byteOffset": 35496,
      "componentType": 5125,
      "count": 270,
      "type": "SCALAR"
    },
    {
      "bufferView": 2,
      "byteOffset": 60840,
      "componentType": 5126,
      "count": 668,
      "max": [
        49.512351989746094,
        6.337690830230713,
        28.15190315246582
      ],
      "min": [
        48.81655502319336,
        5.8882598876953125,
        27.383426666259766
      ],
      "type": "VEC3"
    },
    {
      "bufferView": 2,
      "byteOffset": 68856,
      "componentType": 5126,
      "count": 668,
      "max": [
        0.998994767665863,
        1.0,
        0.9944280385971069
      ],
      "min": [
        -0.990384042263031,
        -1.0,
        -0.9951193332672119
      ],
      "type": "VEC3"
    },
    {
      "bufferView": 3,
      "byteOffset": 40560,
      "componentType": 5126,
      "count": 668,
      "max": [
        0.9986804127693176,
        0.9948154091835022,
        0.9998227953910828,
        1.0
      ],
      "min": [
        -0.9983375668525696,
        -0.7892282605171204,
        -0.9592270255088806,
        1.0
      ],
      "type": "VEC4"
    },
    {
      "bufferView": 1,
      "byteOffset": 20280,
      "componentType": 5126,
      "count": 668,
      "max": [
        0.9888627529144287,
        0.9674614667892456
      ],
      "min": [
        0.0004995005438104272,
        0.000828237971290946
      ],
      "type": "VEC2"
    },
    {
      "bufferView": 0,
      "byteOffset": 36576,
      "componentType": 5125,
      "count": 2424,
      "type": "SCALAR"
    },
    {
      "bufferView": 2,
      "byteOffset": 76872,
      "componentType": 5126,
      "count": 350,
      "max": [
        35.403751373291016,
        8.834102630615234,
        56.34489440917969
      ],
      "min": [
        27.306407928466797,
        1.0577813386917114,
        53.21588897705078
      ],
      "type": "VEC3"
    },
    {
      "bufferView": 2,
      "byteOffset": 81072,
      "componentType": 5126,
      "count": 350,
      "max": [
        0.9969943165779114,
        0.9907193779945374,
        0.9999997019767761
      ],
      "min": [
        -0.996993362903595,
        -0.9986364841461182,
        -0.9986733794212341
      ],
      "type": "VEC3"
    },
    {
      "bufferView": 3,
      "byteOffset": 51248,
      "componentType": 5126,
      "count": 350,
      "max": [
        0.6165165901184082,
        0.8601624965667725,
        0.99810791015625,
        1.0
      ],
      "min": [
        -0.9999998211860657,
        -0.8596384525299072,
        -0.9987852573394775,
        1.0
      ],
      "type": "VEC4"
    },
    {
      "bufferView": 1,
      "byteOffset": 25624,
      "componentType": 5126,
      "count": 350,
      "max": [
        0.8551391959190369,
        0.8957715034484863
      ],
      "min": [
        0.49836820363998413,
        0.0029238341376185417
      ],
      "type": "VEC2"
    },
    {
      "bufferView": 0,
      "byteOffset": 46272,
      "componentType": 5125,
      "count": 1668,
      "type": "SCALAR"
    },
    {
      "bufferView": 2,
      "byteOffset": 85272,
      "componentType": 5126,
      "count": 25,
      "max": [
        35.08846664428711,
        5.389837265014648,
        53.2982177734375
      ],
      "min": [
        27.657928466796875,
        4.014991760253906,
        46.773231506347656
      ],
      "type": "VEC3"
    },
    {
      "bufferView": 2,
      "byteOffset": 85572,
      "componentType": 5126,
      "count": 25,
      "max": [
        0.9986292123794556,
        1.0,
        1.0
      ],
      "min": [
        -0.9986292719841003,
        -1.0,
        -1.0
      ],
      "type": "VEC3"
    },
    {
      "bufferView": 3,
      "byteOffset": 56848,
      "componentType": 5126,
      "count": 25,
      "max": [
        0.05234137177467346,
        0.9999633431434631,
        0.9999997615814209,
        1.0
      ],
      "min": [
        -0.052345696836709976,
        -0.04458923265337944,
        -0.9999970197677612,
        1.0
      ],
      "type": "VEC4"
    },
    {
      "bufferView": 1,
      "byteOffset": 28424,
      "componentType": 5126,
      "count": 25,
      "max": [
        0.9995004534721375,
        0.8888711333274841
      ],
      "min": [
        0.07694368064403534,
        0.5299769043922424
      ],
      "type": "VEC2"
    },
    {
      "bufferView": 0,
      "byteOffset": 52944,
      "componentType": 5125,
      "count": 42,
      "type": "SCALAR"
    },
    {
      "bufferView": 2,
      "byteOffset": 85872,
      "componentType": 5126,
      "count": 24,
      "max": [
        35.04964065551758,
        3.97890305519104,
        53.37635040283203
      ],
      "min": [
        27.69580841064453,
        0.9802732467651367,
        46.79399871826172
      ],
      "type": "VEC3"
    },
    {
      "bufferView": 2,
      "byteOffset": 86160,
      "componentType": 5126,
      "count": 24,
      "max": [
        1.0,
        1.0,
        1.0
      ],
      "min": [
        -1.0,
        -1.0,
        -1.0
      ],
      "type": "VEC3"
    },
    {
      "bufferView": 3,
      "byteOffset": 57248,
      "componentType": 5126,
      "count": 24,
      "max": [
        0.0,
        1.0,
        1.0,
        1.0
      ],
      "min": [
        -0.0007160225068219006,
        -1.0,
        -0.00030532939126715064,
        1.0
      ],
      "type": "VEC4"
    },
    {
      "bufferView": 1,
      "byteOffset": 28624,
      "componentType": 5126,
      "count": 24,
      "max": [
        0.9678667187690735,
        0.8763711452484131
      ],
      "min": [
        0.008339925669133663,
        0.5358696579933167
      ],
      "type": "VEC2"
    },
    {
      "bufferView": 0,
      "byteOffset": 53112,
      "componentType": 5125,
      "count": 36,
      "type": "SCALAR"
    },
    {
      "bufferView": 2,
      "byteOffset": 86448,
      "componentType": 5126,
      "count": 82,
      "max": [
        36.82735061645508,
        0.9895039796829224,
        48.946372985839844
      ],
      "min": [
        35.19163131713867,
        0.04748833552002907,
        46.555419921875
      ],
      "type": "VEC3"
    },
    {
      "bufferView": 2,
      "byteOffset": 87432,
      "componentType": 5126,
      "count": 82,
      "max": [
        1.0,
        1.0,
        0.9995765686035156
      ],
      "min": [
        -1.0,
        -1.0,
        -0.9995765686035156
      ],
      "type": "VEC3"
    },
    {
      "bufferView": 3,
      "byteOffset": 57632,
      "componentType": 5126,
      "count": 82,
      "max": [
        1.0,
        6.922430475242436e-05,
        1.0,
        1.0
      ],
      "min": [
        -1.697609513939824e-05,
        -7.043876394163817e-05,
        -1.0,
        1.0
      ],
      "type": "VEC4"
    },
    {
      "bufferView": 1,
      "byteOffset": 28816,
      "componentType": 5126,
      "count": 82,
      "max": [
        0.23977908492088318,
        0.9930790662765503
      ],
      "min": [
        0.14915014803409576,
        0.8696774244308472
      ],
      "type": "VEC2"
    },
    {
      "bufferView": 0,
      "byteOffset": 53256,
      "componentType": 5125,
      "count": 228,
      "type": "SCALAR"
    },
    {
      "bufferView": 2,
      "byteOffset": 88416,
      "componentType": 5126,
      "count": 574,
      "max": [
        27.62611961364746,
        7.161006927490234,
        55.11509704589844
      ],
      "min": [
        25.820186614990234,
        1.0158956050872803,
        46.544517517089844
      ],
      "type": "VEC3"
    },
    {
      "bufferView": 2,
      "byteOffset": 95304,
      "componentType": 5126,
      "count": 574,
      "max": [
        1.0,
        0.9998787641525269,
        1.0
      ],
      "min": [
        -1.0,
        -1.0,
        -1.0
      ],
      "type": "VEC3"
    },
    {
      "bufferView": 3,
      "byteOffset": 58944,
      "componentType": 5126,
      "count": 574,
      "max": [
        0.9999964237213135,
        0.9999998211860657,
        0.9983611702919006,
        1.0
      ],
      "min": [
        -0.9999997615814209,
        -1.0,
        -0.9986964464187622,
        1.0
      ],
      "type": "VEC4"
    },
    {
      "bufferView": 1,
      "byteOffset": 29472,
      "componentType": 5126,
      "count": 574,
      "max": [
        0.900695264339447,
        0.9869074821472168
      ],
      "min": [
        0.1729888617992401,
        0.0023751447442919016
      ],
      "type": "VEC2"
    },
    {
      "bufferView": 0,
      "byteOffset": 54168,
      "componentType": 5125,
      "count": 2016,
      "type": "SCALAR"
    },
    {
      "bufferView": 2,
      "byteOffset": 102192,
      "componentType": 5126,
      "count": 14,
      "max": [
        26.96026039123535,
        1.0511561632156372,
        54.71548843383789
      ],
      "min": [
        26.500259399414063,
        0.13115611672401428,
        54.31711959838867
      ],
      "type": "VEC3"
    },
    {
      "bufferView": 2,
      "byteOffset": 102360,
      "componentType": 5126,
      "count": 14,
      "max": [
        1.0,
        0.0,
        0.8660359382629395
      ],
      "min": [
        -1.0,
        0.0,
        -0.8660359382629395
      ],
      "type": "VEC3"
    },
    {
      "bufferView": 3,
      "byteOffset": 68128,
      "componentType": 5126,
      "count": 14,
      "max": [
        0.0,
        -1.0,
        0.0,
        1.0
      ],
      "min": [
        0.0,
        -1.0,
        0.0,
        1.0
      ],
      "type": "VEC4"
    },
    {
      "bufferView": 1,
      "byteOffset": 34064,
      "componentType": 5126,
      "count": 14,
      "max": [
        0.2134411334991455,
        0.9884783625602722
      ],
      "min": [
        0.1935577392578125,
        0.9586536288261414
      ],
      "type": "VEC2"
    },
    {
      "bufferView": 0,
      "byteOffset": 62232,
      "componentType": 5125,
      "count": 36,
      "type": "SCALAR"
    },
    {
      "bufferView": 2,
      "byteOffset": 102528,
      "componentType": 5126,
      "count": 574,
      "max": [
        36.92123031616211,
        7.161006927490234,
        55.11509704589844
      ],
      "min": [
        35.11529541015625,
        1.0158956050872803,
        46.544517517089844
      ],
      "type": "VEC3"
    },
    {
      "bufferView": 2,
      "byteOffset": 109416,
      "componentType": 5126,
      "count": 574,
      "max": [
        1.0,
        0.9998787641525269,
        1.0
      ],
      "min": [
        -1.0,
        -1.0,
        -1.0
      ],
      "type": "VEC3"
    },
    {
      "bufferView": 3,
      "byteOffset": 68352,
      "componentType": 5126,
      "count": 574,
      "max": [
        0.999996542930603,
        1.0,
        0.9973177313804626,
        1.0
      ],
      "min": [
        -1.0,
        -1.0,
        -0.9990667104721069,
        1.0
      ],
      "type": "VEC4"
    },
    {
      "bufferView": 1,
      "byteOffset": 34176,
      "componentType": 5126,
      "count": 574,
      "max": [
        0.9906834363937378,
        0.9463392496109009
      ],
      "min": [
        0.22395189106464386,
        0.0004964675754308701
      ],
      "type": "VEC2"
    },
    {
      "bufferView": 0,
      "byteOffset": 62376,
      "componentType": 5125,
      "count": 2016,
      "type": "SCALAR"
    },
    {
      "bufferView": 2,
      "byteOffset": 116304,
      "componentType": 5126,
      "count": 14,
      "max": [
        36.261512756347656,
        1.0511561632156372,
        54.71548843383789
      ],
      "min": [
        35.801513671875,
        0.13115611672401428,
        54.31711959838867
      ],
      "type": "VEC3"
    },
    {
      "bufferView": 2,
      "byteOffset": 116472,
      "componentType": 5126,
      "count": 14,
      "max": [
        1.0,
        0.0,
        0.8660358190536499
      ],
      "min": [
        -1.0,
        0.0,
        -0.8660358190536499
      ],
      "type": "VEC3"
    },
    {
      "bufferView": 3,
      "byteOffset": 77536,
      "componentType": 5126,
      "count": 14,
      "max": [
        0.0,
        1.0,
        0.0,
        1.0
      ],
      "min": [
        0.0,
        1.0,
        0.0,
        1.0
      ],
      "type": "VEC4"
    },
    {
      "bufferView": 1,
      "byteOffset": 38768,
      "componentType": 5126,
      "count": 14,
      "max": [
        0.23614346981048584,
        0.9883367419242859
      ],
      "min": [
        0.21626043319702148,
        0.9585127234458923
      ],
      "type": "VEC2"
    },
    {
      "bufferView": 0,
      "byteOffset": 70440,
      "componentType": 5125,
      "count": 36,
      "type": "SCALAR"
    },
    {
      "bufferView": 2,
      "byteOffset": 116640,
      "componentType": 5126,
      "count": 82,
      "max": [
        27.530414581298828,
        0.9981979727745056,
        48.958229064941406
      ],
      "min": [
        25.894695281982422,
        0.05618232488632202,
        46.56727600097656
      ],
      "type": "VEC3"
    },
    {
      "bufferView": 2,
      "byteOffset": 117624,
      "componentType": 5126,
      "count": 82,
      "max": [
        1.0,
        1.0,
        0.9995766282081604
      ],
      "min": [
        -1.0,
        -1.0,
        -0.9995765686035156
      ],
      "type": "VEC3"
    },
    {
      "bufferView": 3,
      "byteOffset": 77760,
      "componentType": 5126,
      "count": 82,
      "max": [
        1.6976091501419432e-05,
        9.654866880737245e-05,
        4.052908564311508e-10,
        1.0
      ],
      "min": [
        -1.0,
        -0.00014967874449212104,
        -1.0,
        1.0
      ],
      "type": "VEC4"
    },
    {
      "bufferView": 1,
      "byteOffset": 38880,
      "componentType": 5126,
      "count": 82,
      "max": [
        0.2781175673007965,
        0.9930250644683838
      ],
      "min": [
        0.1880980283021927,
        0.8696233034133911
      ],
      "type": "VEC2"
    },
    {
      "bufferView": 0,
      "byteOffset": 70584,
      "componentType": 5125,
      "count": 228,
      "type": "SCALAR"
    },
    {
      "bufferView": 2,
      "byteOffset": 118608,
      "componentType": 5126,
      "count": 574,
      "max": [
        25.52165412902832,
        7.161006927490234,
        55.11509704589844
      ],
      "min": [
        23.715721130371094,
        1.0158956050872803,
        46.544517517089844
      ],
      "type": "VEC3"
    },
    {
      "bufferView": 2,
      "byteOffset": 125496,
      "componentType": 5126,
      "count": 574,
      "max": [
        1.0,
        0.9998787641525269,
        1.0
      ],
      "min": [
        -1.0,
        -1.0,
        -1.0
      ],
      "type": "VEC3"
    },
    {
      "bufferView": 3,
      "byteOffset": 79072,
      "componentType": 5126,
      "count": 574,
      "max": [
        0.9999966025352478,
        1.0,
        0.9986957907676697,
        1.0
      ],
      "min": [
        -1.0,
        -0.9999999403953552,
        -0.9990678429603577,
        1.0
      ],
      "type": "VEC4"
    },
    {
      "bufferView": 1,
      "byteOffset": 39536,
      "componentType": 5126,
      "count": 574,
      "max": [
        0.9932419657707214,
        0.9868345260620117
      ],
      "min": [
        0.23767274618148804,
        0.002680455567315221
      ],
      "type": "VEC2"
    },
    {
      "bufferView": 0,
      "byteOffset": 71496,
      "componentType": 5125,
      "count": 2016,
      "type": "SCALAR"
    },
    {
      "bufferView": 2,
      "byteOffset": 132384,
      "componentType": 5126,
      "count": 82,
      "max": [
        25.427772521972656,
        0.9895039796829224,
        48.946372985839844
      ],
      "min": [
        23.79205322265625,
        0.04748833552002907,
        46.555419921875
      ],
      "type": "VEC3"
    },
    {
      "bufferView": 2,
      "byteOffset": 133368,
      "componentType": 5126,
      "count": 82,
      "max": [
        1.0,
        1.0,
        0.9995766282081604
      ],
      "min": [
        -1.0,
        -1.0,
        -0.9995766282081604
      ],
      "type": "VEC3"
    },
    {
      "bufferView": 3,
      "byteOffset": 88256,
      "componentType": 5126,
      "count": 82,
      "max": [
        1.0,
        0.00010757261770777404,
        1.0,
        1.0
      ],
      "min": [
        -1.653944309509825e-05,
        -4.9717786168912426e-05,
        -1.0,
        1.0
      ],
      "type": "VEC4"
    },
    {
      "bufferView": 1,
      "byteOffset": 44128,
      "componentType": 5126,
      "count": 82,
      "max": [
        0.37674883008003235,
        0.99261474609375
      ],
      "min": [
        0.28533896803855896,
        0.8692132234573364
      ],
      "type": "VEC2"
    },
    {
      "bufferView": 0,
      "byteOffset": 79560,
      "componentType": 5125,
      "count": 228,
      "type": "SCALAR"
    },
    {
      "bufferView": 2,
      "byteOffset": 134352,
      "componentType": 5126,
      "count": 14,
      "max": [
        24.861934661865234,
        1.0511561632156372,
        54.71548843383789
      ],
      "min": [
        24.401933670043945,
        0.13115611672401428,
        54.31711959838867
      ],
      "type": "VEC3"
    },
    {
      "bufferView": 2,
      "byteOffset": 134520,
      "componentType": 5126,
      "count": 14,
      "max": [
        1.0,
        0.0,
        0.8660358190536499
      ],
      "min": [
        -1.0,
        0.0,
        -0.8660358190536499
      ],
      "type": "VEC3"
    },
    {
      "bufferView": 3,
      "byteOffset": 89568,
      "componentType": 5126,
      "count": 14,
      "max": [
        0.0,
        -1.0,
        0.0,
        1.0
      ],
      "min": [
        0.0,
        -1.0,
        0.0,
        1.0
      ],
      "type": "VEC4"
    },
    {
      "bufferView": 1,
      "byteOffset": 44784,
      "componentType": 5126,
      "count": 14,
      "max": [
        0.3498115837574005,
        0.9856759309768677
      ],
      "min": [
        0.3299279510974884,
        0.9558511972427368
      ],
      "type": "VEC2"
    },
    {
      "bufferView": 0,
      "byteOffset": 80472,
      "componentType": 5125,
      "count": 36,
      "type": "SCALAR"
    },
    {
      "bufferView": 2,
      "byteOffset": 134688,
      "componentType": 5126,
      "count": 14,
      "max": [
        15.45364761352539,
        1.0511561632156372,
        54.71548843383789
      ],
      "min": [
        14.993646621704102,
        0.13115611672401428,
        54.31711959838867
      ],
      "type": "VEC3"
    },
    {
      "bufferView": 2,
      "byteOffset": 134856,
      "componentType": 5126,
      "count": 14,
      "max": [
        1.0,
        0.0,
        0.8660352826118469
      ],
      "min": [
        -1.0,
        0.0,
        -0.8660352826118469
      ],
      "type": "VEC3"
    },
    {
      "bufferView": 3,
      "byteOffset": 89792,
      "componentType": 5126,
      "count": 14,
      "max": [
        0.0,
        1.0,
        0.0,
        1.0
      ],
      "min": [
        0.0,
        1.0,
        0.0,
        1.0
      ],
      "type": "VEC4"
    },
    {
      "bufferView": 1,
      "byteOffset": 44896,
      "componentType": 5126,
      "count": 14,
      "max": [
        0.3724770247936249,
        0.9856430292129517
      ],
      "min": [
        0.35259366035461426,
        0.9558182954788208
      ],
      "type": "VEC2"
    },
    {
      "bufferView": 0,
      "byteOffset": 80616,
      "componentType": 5125,
      "count": 36,
      "type": "SCALAR"
    },
    {
      "bufferView": 2,
      "byteOffset": 135024,
      "componentType": 5126,
      "count": 82,
      "max": [
        16.0238037109375,
        0.9981979727745056,
        48.958229064941406
      ],
      "min": [
        14.388084411621094,
        0.05618232488632202,
        46.56727600097656
      ],
      "type": "VEC3"
    },
    {
      "bufferView": 2,
      "byteOffset": 136008,
      "componentType": 5126,
      "count": 82,
      "max": [
        1.0,
        1.0,
        0.9995766282081604
      ],
      "min": [
        -1.0,
        -1.0,
        -0.9995765686035156
      ],
      "type": "VEC3"
    },
    {
      "bufferView": 3,
      "byteOffset": 90016,
      "componentType": 5126,
      "count": 82,
      "max": [
        1.6976229744614102e-05,
        9.654866880737245e-05,
        1.0,
        1.0
      ],
      "min": [
        -1.0,
        -9.518240403849632e-05,
        -1.0,
        1.0
      ],
      "type": "VEC4"
    },
    {
      "bufferView": 1,
      "byteOffset": 45008,
      "componentType": 5126,
      "count": 82,
      "max": [
        0.41596847772598267,
        0.9909667372703552
      ],
      "min": [
        0.32507702708244324,
        0.8675647377967834
      ],
      "type": "VEC2"
    },
    {
      "bufferView": 0,
      "byteOffset": 80760,
      "componentType": 5125,
      "count": 228,
      "type": "SCALAR"
    },
    {
      "bufferView": 2,
      "byteOffset": 136992,
      "componentType": 5126,
      "count": 574,
      "max": [
        16.1195068359375,
        7.161006927490234,
        55.11509704589844
      ],
      "min": [
        14.313573837280273,
        1.0158956050872803,
        46.544517517089844
      ],
      "type": "VEC3"
    },
    {
      "bufferView": 2,
      "byteOffset": 143880,
      "componentType": 5126,
      "count": 574,
      "max": [
        1.0,
        0.9998787641525269,
        1.0
      ],
      "min": [
        -1.0,
        -1.0,
        -1.0
      ],
      "type": "VEC3"
    },
    {
      "bufferView": 3,
      "byteOffset": 91328,
      "componentType": 5126,
      "count": 574,
      "max": [
        0.9999880194664001,
        0.9997832775115967,
        0.9986398816108704,
        1.0
      ],
      "min": [
        -0.9999997615814209,
        -0.9999999403953552,
        -0.9986975193023682,
        1.0
      ],
      "type": "VEC4"
    },
    {
      "bufferView": 1,
      "byteOffset": 45664,
      "componentType": 5126,
      "count": 574,
      "max": [
        0.9932112097740173,
        0.9459186792373657
      ],
      "min": [
        0.0004995005438104272,
        0.0023222945164889097
      ],
      "type": "VEC2"
    },
    {
      "bufferView": 0,
      "byteOffset": 81672,
      "componentType": 5125,
      "count": 2016,
      "type": "SCALAR"
    },
    {
      "bufferView": 2,
      "byteOffset": 150768,
      "componentType": 5126,
      "count": 340,
      "max": [
        23.879104614257813,
        8.705429077148438,
        56.328514099121094
      ],
      "min": [
        15.965943336486816,
        1.1779855489730835,
        53.240074157714844
      ],
      "type": "VEC3"
    },
    {
      "bufferView": 2,
      "byteOffset": 154848,
      "componentType": 5126,
      "count": 340,
      "max": [
        0.9999977946281433,
        0.9998800754547119,
        0.9997746348381042
      ],
      "min": [
        -0.9999977350234985,
        -0.9999850392341614,
        -0.9997099041938782
      ],
      "type": "VEC3"
    },
    {
      "bufferView": 3,
      "byteOffset": 100512,
      "componentType": 5126,
      "count": 340,
      "max": [
        0.9999927878379822,
        0.8623728156089783,
        0.9999918937683105,
        1.0
      ],
      "min": [
        -0.365446537733078,
        -0.8017987608909607,
        -0.9997819066047668,
        1.0
      ],
      "type": "VEC4"
    },
    {
      "bufferView": 1,
      "byteOffset": 50256,
      "componentType": 5126,
      "count": 340,
      "max": [
        0.6718525290489197,
        0.7384749054908752
      ],
      "min": [
        0.0004995005438104272,
        0.0025974700693041086
      ],
      "type": "VEC2"
    },
    {
      "bufferView": 0,
      "byteOffset": 89736,
      "componentType": 5125,
      "count": 1644,
      "type": "SCALAR"
    },
    {
      "bufferView": 2,
      "byteOffset": 158928,
      "componentType": 5126,
      "count": 25,
      "max": [
        23.65155029296875,
        5.382839202880859,
        53.317481994628906
      ],
      "min": [
        16.126766204833984,
        4.007993698120117,
        46.934818267822266
      ],
      "type": "VEC3"
    },
    {
      "bufferView": 2,
      "byteOffset": 159228,
      "componentType": 5126,
      "count": 25,
      "max": [
        0.9985944032669067,
        1.0,
        1.0
      ],
      "min": [
        -0.998594343662262,
        -1.0,
        -1.0
      ],
      "type": "VEC3"
    },
    {
      "bufferView": 3,
      "byteOffset": 105952,
      "componentType": 5126,
      "count": 25,
      "max": [
        0.00868416577577591,
        0.9999623894691467,
        0.9999967217445374,
        1.0
      ],
      "min": [
        -0.053005170077085495,
        -0.999962329864502,
        -0.9999997615814209,
        1.0
      ],
      "type": "VEC4"
    },
    {
      "bufferView": 1,
      "byteOffset": 52976,
      "componentType": 5126,
      "count": 25,
      "max": [
        0.9992573857307434,
        0.8913115859031677
      ],
      "min": [
        0.0004995005438104272,
        0.4924698770046234
      ],
      "type": "VEC2"
    },
    {
      "bufferView": 0,
      "byteOffset": 96312,
      "componentType": 5125,
      "count": 42,
      "type": "SCALAR"
    },
    {
      "bufferView": 2,
      "byteOffset": 159528,
      "componentType": 5126,
      "count": 24,
      "max": [
        23.682048797607422,
        4.004988193511963,
        53.51244354248047
      ],
      "min": [
        16.160537719726563,
        1.0063581466674805,
        46.93008804321289
      ],
      "type": "VEC3"
    },
    {
      "bufferView": 2,
      "byteOffset": 159816,
      "componentType": 5126,
      "count": 24,
      "max": [
        1.0,
        1.0,
        1.0
      ],
      "min": [
        -1.0,
        -1.0,
        -1.0
      ],
      "type": "VEC3"
    },
    {
      "bufferView": 3,
      "byteOffset": 106352,
      "componentType": 5126,
      "count": 24,
      "max": [
        0.0010044643422588706,
        0.0,
        0.9999995827674866,
        1.0
      ],
      "min": [
        -0.002182063879445195,
        -1.0,
        -0.9999996423721313,
        1.0
      ],
      "type": "VEC4"
    },
    {
      "bufferView": 1,
      "byteOffset": 53176,
      "componentType": 5126,
      "count": 24,
      "max": [
        0.8180400729179382,
        0.8765738010406494
      ],
      "min": [
        0.14554738998413086,
        0.3866403102874756
      ],
      "type": "VEC2"
    },
    {
      "bufferView": 0,
      "byteOffset": 96480,
      "componentType": 5125,
      "count": 36,
      "type": "SCALAR"
    },
    {
      "bufferView": 2,
      "byteOffset": 160104,
      "componentType": 5126,
      "count": 42,
      "max": [
        52.98067855834961,
        5.097053527832031,
        38.51439666748047
      ],
      "min": [
        46.652183532714844,
        3.6626181602478027,
        31.375558853149414
      ],
      "type": "VEC3"
    },
    {
      "bufferView": 2,
      "byteOffset": 160608,
      "componentType": 5126,
      "count": 42,
      "max": [
        1.0,
        0.9998851418495178,
        1.0
      ],
      "min": [
        -1.0,
        -1.0,
        -1.0
      ],
      "type": "VEC3"
    },
    {
      "bufferView": 3,
      "byteOffset": 106736,
      "componentType": 5126,
      "count": 42,
      "max": [
        0.9999979734420776,
        0.9999947547912598,
        1.0,
        1.0
      ],
      "min": [
        -5.461285468300048e-07,
        -1.0,
        -1.7670055967755616e-05,
        1.0
      ],
      "type": "VEC4"
    },
    {
      "bufferView": 1,
      "byteOffset": 53368,
      "componentType": 5126,
      "count": 42,
      "max": [
        0.9939718246459961,
        0.9917938113212585
      ],
      "min": [
        0.16843843460083008,
        0.017306089401245117
      ],
      "type": "VEC2"
    },
    {
      "bufferView": 0,
      "byteOffset": 96624,
      "componentType": 5125,
      "count": 96,
      "type": "SCALAR"
    },
    {
      "bufferView": 2,
      "byteOffset": 161112,
      "componentType": 5126,
      "count": 24,
      "max": [
        53.165191650390625,
        3.6759753227233887,
        38.54195785522461
      ],
      "min": [
        46.58283233642578,
        0.677345335483551,
        31.350305557250977
      ],
      "type": "VEC3"
    },
    {
      "bufferView": 2,
      "byteOffset": 161400,
      "componentType": 5126,
      "count": 24,
      "max": [
        1.0,
        1.0,
        1.0
      ],
      "min": [
        -1.0,
        -1.0,
        -1.0
      ],
      "type": "VEC3"
    },
    {
      "bufferView": 3,
      "byteOffset": 107408,
      "componentType": 5126,
      "count": 24,
      "max": [
        1.0,
        1.0,
        0.0,
        1.0
      ],
      "min": [
        0.0,
        -1.0,
        -4.060551873408258e-06,
        1.0
      ],
      "type": "VEC4"
    },
    {
      "bufferView": 1,
      "byteOffset": 53704,
      "componentType": 5126,
      "count": 24,
      "max": [
        0.9972513318061829,
        0.9995005130767822
      ],
      "min": [
        0.0004726611077785492,
        0.021681195124983788
      ],
      "type": "VEC2"
    },
    {
      "bufferView": 0,
      "byteOffset": 97008,
      "componentType": 5125,
      "count": 36,
      "type": "SCALAR"
    },
    {
      "bufferView": 2,
      "byteOffset": 161688,
      "componentType": 5126,
      "count": 212,
      "max": [
        55.65857696533203,
        6.611586093902588,
        31.25823974609375
      ],
      "min": [
        46.64081573486328,
        0.6972651481628418,
        29.080629348754883
      ],
      "type": "VEC3"
    },
    {
      "bufferView": 2,
      "byteOffset": 164232,
      "componentType": 5126,
      "count": 212,
      "max": [
        0.9993378520011902,
        0.9999526739120483,
        1.0
      ],
      "min": [
        -0.9999930262565613,
        -0.999999463558197,
        -1.0
      ],
      "type": "VEC3"
    },
    {
      "bufferView": 3,
      "byteOffset": 107792,
      "componentType": 5126,
      "count": 212,
      "max": [
        0.8700845241546631,
        0.00027334154583513737,
        5.615513873635791e-05,
        1.0
      ],
      "min": [
        -0.9662227630615234,
        -1.0,
        -1.0,
        1.0
      ],
      "type": "VEC4"
    },
    {
      "bufferView": 1,
      "byteOffset": 53896,
      "componentType": 5126,
      "count": 212,
      "max": [
        0.9457799196243286,
        0.9396188259124756
      ],
      "min": [
        0.00047265365719795227,
        0.002566268667578697
      ],
      "type": "VEC2"
    },
    {
      "bufferView": 0,
      "byteOffset": 97152,
      "componentType": 5125,
      "count": 612,
      "type": "SCALAR"
    },
    {
      "bufferView": 2,
      "byteOffset": 166776,
      "componentType": 5126,
      "count": 112,
      "max": [
        48.069576263427734,
        0.6930456161499023,
        31.230012893676758
      ],
      "min": [
        46.78199768066406,
        0.061342716217041016,
        29.102426528930664
      ],
      "type": "VEC3"
    },
    {
      "bufferView": 2,
      "byteOffset": 168120,
      "componentType": 5126,
      "count": 112,
      "max": [
        0.9941476583480835,
        0.998854398727417,
        0.9937726259231567
      ],
      "min": [
        -0.9941482543945313,
        -0.9988543391227722,
        -0.9937734603881836
      ],
      "type": "VEC3"
    },
    {
      "bufferView": 3,
      "byteOffset": 111184,
      "componentType": 5126,
      "count": 112,
      "max": [
        0.9996765851974487,
        0.9977520108222961,
        0.9997308850288391,
        1.0
      ],
      "min": [
        -0.7118188738822937,
        -0.9977523684501648,
        -0.999899685382843,
        1.0
      ],
      "type": "VEC4"
    },
    {
      "bufferView": 1,
      "byteOffset": 55592,
      "componentType": 5126,
      "count": 112,
      "max": [
        0.8184048533439636,
        0.9528221487998962
      ],
      "min": [
        0.4528256356716156,
        0.8192153573036194
      ],
      "type": "VEC2"
    },
    {
      "bufferView": 0,
      "byteOffset": 99600,
      "componentType": 5125,
      "count": 324,
      "type": "SCALAR"
    },
    {
      "bufferView": 2,
      "byteOffset": 169464,
      "componentType": 5126,
      "count": 112,
      "max": [
        48.069576263427734,
        0.6930456161499023,
        40.78971481323242
      ],
      "min": [
        46.78199768066406,
        0.061342716217041016,
        38.66212844848633
      ],
      "type": "VEC3"
    },
    {
      "bufferView": 2,
      "byteOffset": 170808,
      "componentType": 5126,
      "count": 112,
      "max": [
        0.9941477179527283,
        0.998854398727417,
        0.9937737584114075
      ],
      "min": [
        -0.9941476583480835,
        -0.998854398727417,
        -0.9937729239463806
      ],
      "type": "VEC3"
    },
    {
      "bufferView": 3,
      "byteOffset": 112976,
      "componentType": 5126,
      "count": 112,
      "max": [
        0.9996765851974487,
        0.9977515935897827,
        0.999899685382843,
        1.0
      ],
      "min": [
        -0.7119731307029724,
        -0.9977526664733887,
        -0.9998996257781982,
        1.0
      ],
      "type": "VEC4"
    },
    {
      "bufferView": 1,
      "byteOffset": 56488,
      "componentType": 5126,
      "count": 112,
      "max": [
        0.8146064877510071,
        0.9549827575683594
      ],
      "min": [
        0.47085580229759216,
        0.8192154169082642
      ],
      "type": "VEC2"
    },
    {
      "bufferView": 0,
      "byteOffset": 100896,
      "componentType": 5125,
      "count": 324,
      "type": "SCALAR"
    },
    {
      "bufferView": 2,
      "byteOffset": 172152,
      "componentType": 5126,
      "count": 212,
      "max": [
        55.65857696533203,
        6.611586093902588,
        40.81793975830078
      ],
      "min": [
        46.64081573486328,
        0.6972651481628418,
        38.64033126831055
      ],
      "type": "VEC3"
    },
    {
      "bufferView": 2,
      "byteOffset": 174696,
      "componentType": 5126,
      "count": 212,
      "max": [
        0.999337911605835,
        0.9999526739120483,
        1.0
      ],
      "min": [
        -0.9999930262565613,
        -0.999999463558197,
        -1.0
      ],
      "type": "VEC3"
    },
    {
      "bufferView": 3,
      "byteOffset": 114768,
      "componentType": 5126,
      "count": 212,
      "max": [
        0.8700694441795349,
        1.0,
        7.040869240881875e-05,
        1.0
      ],
      "min": [
        -0.966221809387207,
        -1.0,
        -1.0,
        1.0
      ],
      "type": "VEC4"
    },
    {
      "bufferView": 1,
      "byteOffset": 57384,
      "componentType": 5126,
      "count": 212,
      "max": [
        0.9019481539726257,
        0.9942846894264221
      ],
      "min": [
        0.0688784122467041,
        0.0008484048303216696
      ],
      "type": "VEC2"
    },
    {
      "bufferView": 0,
      "byteOffset": 102192,
      "componentType": 5125,
      "count": 612,
      "type": "SCALAR"
    },
    {
      "bufferView": 2,
      "byteOffset": 177240,
      "componentType": 5126,
      "count": 331,
      "max": [
        55.930824279785156,
        8.592923164367676,
        38.67839050292969
      ],
      "min": [
        52.842384338378906,
        1.0654802322387695,
        31.2064151763916
      ],
      "type": "VEC3"
    },
    {
      "bufferView": 2,
      "byteOffset": 181212,
      "componentType": 5126,
      "count": 331,
      "max": [
        0.9997662305831909,
        0.9998809695243835,
        0.9999980330467224
      ],
      "min": [
        -0.9997140765190125,
        -0.9999827742576599,
        -0.9999979734420776
      ],
      "type": "VEC3"
    },
    {
      "bufferView": 3,
      "byteOffset": 118160,
      "componentType": 5126,
      "count": 331,
      "max": [
        0.9994523525238037,
        0.8057082295417786,
        0.9735685586929321,
        1.0
      ],
      "min": [
        -0.999451756477356,
        -0.8057187795639038,
        -0.999992311000824,
        1.0
      ],
      "type": "VEC4"
    },
    {
      "bufferView": 1,
      "byteOffset": 59080,
      "componentType": 5126,
      "count": 331,
      "max": [
        0.83419269323349,
        0.7830718755722046
      ],
      "min": [
        0.13728415966033936,
        0.0004995005438104272
      ],
      "type": "VEC2"
    },
    {
      "bufferView": 0,
      "byteOffset": 104640,
      "componentType": 5125,
      "count": 1644,
      "type": "SCALAR"
    },
    {
      "bufferView": 2,
      "byteOffset": 185184,
      "componentType": 5126,
      "count": 14,
      "max": [
        55.16059494018555,
        0.6902236938476563,
        30.400848388671875
      ],
      "min": [
        54.76221466064453,
        0.06832316517829895,
        29.94084930419922
      ],
      "type": "VEC3"
    },
    {
      "bufferView": 2,
      "byteOffset": 185352,
      "componentType": 5126,
      "count": 14,
      "max": [
        0.8660281300544739,
        0.0,
        1.0
      ],
      "min": [
        -0.8660323023796082,
        0.0,
        -1.0
      ],
      "type": "VEC3"
    },
    {
      "bufferView": 3,
      "byteOffset": 123456,
      "componentType": 5126,
      "count": 14,
      "max": [
        0.00010825906792888418,
        -1.0,
        9.376327216159552e-05,
        1.0
      ],
      "min": [
        -9.500527085037902e-05,
        -1.0,
        -8.897897350834683e-05,
        1.0
      ],
      "type": "VEC4"
    },
    {
      "bufferView": 1,
      "byteOffset": 61728,
      "componentType": 5126,
      "count": 14,
      "max": [
        0.6066703200340271,
        0.9955041408538818
      ],
      "min": [
        0.5837053656578064,
        0.9609407186508179
      ],
      "type": "VEC2"
    },
    {
      "bufferView": 0,
      "byteOffset": 111216,
      "componentType": 5125,
      "count": 36,
      "type": "SCALAR"
    },
    {
      "bufferView": 2,
      "byteOffset": 185520,
      "componentType": 5126,
      "count": 14,
      "max": [
        55.16059494018555,
        0.6902236938476563,
        39.960548400878906
      ],
      "min": [
        54.76221466064453,
        0.06831935048103333,
        39.50054931640625
      ],
      "type": "VEC3"
    },
    {
      "bufferView": 2,
      "byteOffset": 185688,
      "componentType": 5126,
      "count": 14,
      "max": [
        0.8660225868225098,
        0.0,
        1.0
      ],
      "min": [
        -0.8660278916358948,
        0.0,
        -1.0
      ],
      "type": "VEC3"
    },
    {
      "bufferView": 3,
      "byteOffset": 123680,
      "componentType": 5126,
      "count": 14,
      "max": [
        1.0,
        7.294371607713401e-05,
        0.866022527217865,
        1.0
      ],
      "min": [
        -1.0,
        3.51221788150724e-05,
        -0.86602783203125,
        1.0
      ],
      "type": "VEC4"
    },
    {
      "bufferView": 1,
      "byteOffset": 61840,
      "componentType": 5126,
      "count": 14,
      "max": [
        0.7467778325080872,
        0.8742422461509705
      ],
      "min": [
        0.7122145295143127,
        0.8512776494026184
      ],
      "type": "VEC2"
    },
    {
      "bufferView": 0,
      "byteOffset": 111360,
      "componentType": 5125,
      "count": 36,
      "type": "SCALAR"
    },
    {
      "bufferView": 2,
      "byteOffset": 185856,
      "componentType": 5126,
      "count": 4,
      "max": [
        84.56437683105469,
        58.39886474609375,
        83.48002624511719
      ],
      "min": [
        -82.36860656738281,
        0.5747119188308716,
        83.47969055175781
      ],
      "type": "VEC3"
    },
    {
      "bufferView": 2,
      "byteOffset": 185904,
      "componentType": 5126,
      "count": 4,
      "max": [
        5.5942994237057064e-08,
        5.805419732496375e-06,
        -1.0
      ],
      "min": [
        0.0,
        5.805417458759621e-06,
        -1.0
      ],
      "type": "VEC3"
    },
    {
      "bufferView": 3,
      "byteOffset": 123904,
      "componentType": 5126,
      "count": 4,
      "max": [
        -1.8409718904877082e-07,
        -1.0,
        -5.805417458759621e-06,
        1.0
      ],
      "min": [
        -9.60371380642755e-07,
        -1.0,
        -5.805420187243726e-06,
        1.0
      ],
      "type": "VEC4"
    },
    {
      "bufferView": 1,
      "byteOffset": 61952,
      "componentType": 5126,
      "count": 4,
      "max": [
        0.9971683025360107,
        0.7166941165924072
      ],
      "min": [
        0.7225140333175659,
        0.0
      ],
      "type": "VEC2"
    },
    {
      "bufferView": 0,
      "byteOffset": 111504,
      "componentType": 5125,
      "count": 6,
      "type": "SCALAR"
    },
    {
      "bufferView": 2,
      "byteOffset": 185952,
      "componentType": 5126,
      "count": 4,
      "max": [
        84.90840148925781,
        58.39885330200195,
        83.80038452148438
      ],
      "min": [
        84.90769958496094,
        0.5747318267822266,
        -83.24732208251953
      ],
      "type": "VEC3"
    },
    {
      "bufferView": 2,
      "byteOffset": 186000,
      "componentType": 5126,
      "count": 4,
      "max": [
        -1.0,
        0.0,
        4.201819137961138e-06
      ],
      "min": [
        -1.0,
        0.0,
        4.201819137961138e-06
      ],
      "type": "VEC3"
    },
    {
      "bufferView": 3,
      "byteOffset": 123968,
      "componentType": 5126,
      "count": 4,
      "max": [
        4.201819592708489e-06,
        4.988672230865632e-07,
        1.0,
        1.0
      ],
      "min": [
        4.201818683213787e-06,
        3.756066746518627e-08,
        1.0,
        1.0
      ],
      "type": "VEC4"
    },
    {
      "bufferView": 1,
      "byteOffset": 61984,
      "componentType": 5126,
      "count": 4,
      "max": [
        0.7171869277954102,
        0.27465400099754333
      ],
      "min": [
        6.417330057912943e-17,
        0.0
      ],
      "type": "VEC2"
    },
    {
      "bufferView": 0,
      "byteOffset": 111528,
      "componentType": 5125,
      "count": 6,
      "type": "SCALAR"
    },
    {
      "bufferView": 2,
      "byteOffset": 186048,
      "componentType": 5126,
      "count": 4,
      "max": [
        84.68611145019531,
        58.39885330200195,
        -82.67292785644531
      ],
      "min": [
        -82.24688720703125,
        0.5747318267822266,
        -82.67292785644531
      ],
      "type": "VEC3"
    },
    {
      "bufferView": 2,
      "byteOffset": 186096,
      "componentType": 5126,
      "count": 4,
      "max": [
        1.0116932003256807e-07,
        0.0,
        1.0
      ],
      "min": [
        0.0,
        0.0,
        1.0
      ],
      "type": "VEC3"
    },
    {
      "bufferView": 3,
      "byteOffset": 124032,
      "componentType": 5126,
      "count": 4,
      "max": [
        -1.0,
        -4.576096728214907e-07,
        1.0116933424342278e-07,
        1.0
      ],
      "min": [
        -1.0,
        -7.893151519056119e-07,
        0.0,
        1.0
      ],
      "type": "VEC4"
    },
    {
      "bufferView": 1,
      "byteOffset": 62016,
      "componentType": 5126,
      "count": 4,
      "max": [
        0.7166944742202759,
        0.557176411151886
      ],
      "min": [
        5.551115123125783e-17,
        0.2825221121311188
      ],
      "type": "VEC2"
    },
    {
      "bufferView": 0,
      "byteOffset": 111552,
      "componentType": 5125,
      "count": 6,
      "type": "SCALAR"
    },
    {
      "bufferView": 2,
      "byteOffset": 186144,
      "componentType": 5126,
      "count": 4,
      "max": [
        -82.2986831665039,
        58.39885330200195,
        83.12604522705078
      ],
      "min": [
        -82.2987060546875,
        0.5747318267822266,
        -82.9310302734375
      ],
      "type": "VEC3"
    },
    {
      "bufferView": 2,
      "byteOffset": 186192,
      "componentType": 5126,
      "count": 4,
      "max": [
        1.0,
        0.0,
        1.3783323993266094e-07
      ],
      "min": [
        1.0,
        0.0,
        1.3783323993266094e-07
      ],
      "type": "VEC3"
    },
    {
      "bufferView": 3,
      "byteOffset": 124096,
      "componentType": 5126,
      "count": 4,
      "max": [
        1.3783325414351566e-07,
        -3.76382672584441e-07,
        -1.0,
        1.0
      ],
      "min": [
        1.3783323993266094e-07,
        -3.778471864279709e-07,
        -1.0,
        1.0
      ],
      "type": "VEC4"
    },
    {
      "bufferView": 1,
      "byteOffset": 62048,
      "componentType": 5126,
      "count": 4,
      "max": [
        0.7129339575767517,
        0.8396986722946167
      ],
      "min": [
        0.0,
        0.5650445818901062
      ],
      "type": "VEC2"
    },
    {
      "bufferView": 0,
      "byteOffset": 111576,
      "componentType": 5125,
      "count": 6,
      "type": "SCALAR"
    },
    {
      "bufferView": 2,
      "byteOffset": 186240,
      "componentType": 5126,
      "count": 543,
      "max": [
        41.490509033203125,
        17.43691635131836,
        54.46784591674805
      ],
      "min": [
        38.50949478149414,
        0.06214141845703125,
        51.53215789794922
      ],
      "type": "VEC3"
    },
    {
      "bufferView": 2,
      "byteOffset": 192756,
      "componentType": 5126,
      "count": 543,
      "max": [
        1.0,
        1.0,
        0.9848302602767944
      ],
      "min": [
        -1.0,
        -1.0,
        -0.9848124384880066
      ],
      "type": "VEC3"
    },
    {
      "bufferView": 3,
      "byteOffset": 124160,
      "componentType": 5126,
      "count": 543,
      "max": [
        0.9848147630691528,
        1.0,
        1.0,
        1.0
      ],
      "min": [
        -0.9848347902297974,
        -0.9997045397758484,
        -1.0,
        1.0
      ],
      "type": "VEC4"
    },
    {
      "bufferView": 1,
      "byteOffset": 62080,
      "componentType": 5126,
      "count": 543,
      "max": [
        0.9136191010475159,
        0.9804164171218872
      ],
      "min": [
        0.05521189421415329,
        0.002290165051817894
      ],
      "type": "VEC2"
    },
    {
      "bufferView": 0,
      "byteOffset": 111600,
      "componentType": 5125,
      "count": 1716,
      "type": "SCALAR"
    },
    {
      "bufferView": 2,
      "byteOffset": 199272,
      "componentType": 5126,
      "count": 543,
      "max": [
        12.490508079528809,
        17.43691635131836,
        54.46784591674805
      ],
      "min": [
        9.509491920471191,
        0.06214141845703125,
        51.53215789794922
      ],
      "type": "VEC3"
    },
    {
      "bufferView": 2,
      "byteOffset": 205788,
      "componentType": 5126,
      "count": 543,
      "max": [
        1.0,
        1.0,
        0.9848310947418213
      ],
      "min": [
        -1.0,
        -1.0,
        -0.984812319278717
      ],
      "type": "VEC3"
    },
    {
      "bufferView": 3,
      "byteOffset": 132848,
      "componentType": 5126,
      "count": 543,
      "max": [
        0.9848147630691528,
        1.0,
        1.0,
        1.0
      ],
      "min": [
        -0.9848355054855347,
        -0.9059852361679077,
        -1.0,
        1.0
      ],
      "type": "VEC4"
    },
    {
      "bufferView": 1,
      "byteOffset": 66424,
      "componentType": 5126,
      "count": 543,
      "max": [
        0.9995003938674927,
        0.9933897256851196
      ],
      "min": [
        0.0004995004856027663,
        0.0004899634514003992
      ],
      "type": "VEC2"
    },
    {
      "bufferView": 0,
      "byteOffset": 118464,
      "componentType": 5125,
      "count": 1716,
      "type": "SCALAR"
    }
  ],
  "asset": {
    "extras": {
      "author": "pan.stasian (https://sketchfab.com/pan_stasian)",
      "license": "CC-BY-4.0 (http://creativecommons.org/licenses/by/4.0/)",
      "source": "https://sketchfab.com/3d-models/twin-peaks-black-lodge-remake-low-poly-22fc860b46e441f7a7688492da425f45",
      "title": "Twin Peaks Black Lodge Remake (low-poly)"
    },
    "generator": "Sketchfab-14.55.0",
    "version": "2.0"
  },
  "bufferViews": [
    {
      "buffer": 0,
      "byteLength": 125328,
      "name": "floatBufferViews",
      "target": 34963
    },
    {
      "buffer": 0,
      "byteLength": 70768,
      "byteOffset": 125328,
      "byteStride": 8,
      "name": "floatBufferViews",
      "target": 34962
    },
    {
      "buffer": 0,
      "byteLength": 212304,
      "byteOffset": 196096,
      "byteStride": 12,
      "name": "floatBufferViews",
      "target": 34962
    },
    {
      "buffer": 0,
      "byteLength": 141536,
      "byteOffset": 408400,
      "byteStride": 16,
      "name": "floatBufferViews",
      "target": 34962
    }
  ],
  "buffers": [
    {
      "byteLength": 549936,
      "uri": "scene.bin"
    }
  ],
  "images": [
    {
      "uri": "textures/floor_mat_baseColor.png"
    },
    {
      "uri": "textures/floor_mat_metallicRoughness.png"
    },
    {
      "uri": "textures/floor_mat_normal.png"
    },
    {
      "uri": "textures/Table_mat_baseColor.png"
    },
    {
      "uri": "textures/Table_mat_metallicRoughness.png"
    },
    {
      "uri": "textures/Table_mat_normal.png"
    },
    {
      "uri": "textures/ring_mat_baseColor.png"
    },
    {
      "uri": "textures/ring_mat_metallicRoughness.png"
    },
    {
      "uri": "textures/ring_mat_normal.png"
    },
    {
      "uri": "textures/statue_mat_baseColor.png"
    },
    {
      "uri": "textures/statue_mat_metallicRoughness.png"
    },
    {
      "uri": "textures/statue_mat_emissive.png"
    },
    {
      "uri": "textures/statue_mat_normal.png"
    },
    {
      "uri": "textures/coffee_mat_baseColor.png"
    },
    {
      "uri": "textures/coffee_mat_metallicRoughness.png"
    },
    {
      "uri": "textures/coffee_mat_normal.png"
    },
    {
      "uri": "textures/two_chairs_mat_baseColor.png"
    },
    {
      "uri": "textures/two_chairs_mat_metallicRoughness.png"
    },
    {
      "uri": "textures/two_chairs_mat_normal.png"
    },
    {
      "uri": "textures/unbtn_chair_mat_baseColor.png"
    },
    {
      "uri": "textures/unbtn_chair_mat_metallicRoughness.png"
    },
    {
      "uri": "textures/unbtn_chair_mat_normal.png"
    },
    {
      "uri": "textures/curtains_mat_baseColor.png"
    },
    {
      "uri": "textures/curtains_mat_metallicRoughness.png"
    },
    {
      "uri": "textures/curtains_mat_normal.png"
    },
    {
      "uri": "textures/lamps_mat_baseColor.png"
    },
    {
      "uri": "textures/lamps_mat_metallicRoughness.png"
    },
    {
      "uri": "textures/lamps_mat_normal.png"
    }
  ],
  "materials": [
    {
      "doubleSided": true,
      "name": "floor_mat",
      "normalTexture": {
        "index": 2
      },
      "pbrMetallicRoughness": {
        "baseColorTexture": {
          "index": 0
        },
        "metallicFactor": 0.1658747241121427,
        "metallicRoughnessTexture": {
          "index": 1
        },
        "roughnessFactor": 0.5124445944220491
      }
    },
    {
      "doubleSided": true,
      "name": "Table_mat",
      "normalTexture": {
        "index": 5
      },
      "occlusionTexture": {
        "index": 4
      },
      "pbrMetallicRoughness": {
        "baseColorTexture": {
          "index": 3
        },
        "metallicRoughnessTexture": {
          "index": 4
        }
      }
    },
    {
      "doubleSided": true,
      "name": "ring_mat",
      "normalTexture": {
        "index": 8
      },
      "occlusionTexture": {
        "index": 7
      },
      "pbrMetallicRoughness": {
        "baseColorTexture": {
          "index": 6
        },
        "metallicRoughnessTexture": {
          "index": 7
        }
      }
    },
    {
      "alphaMode": "BLEND",
      "doubleSided": true,
      "emissiveFactor": [
        1.0,
        1.0,
        1.0
      ],
      "emissiveTexture": {
        "index": 11
      },
      "name": "statue_mat",
      "normalTexture": {
        "index": 12
      },
      "occlusionTexture": {
        "index": 10
      },
      "pbrMetallicRoughness": {
        "baseColorTexture": {
          "index": 9
        },
        "metallicRoughnessTexture": {
          "index": 10
        }
      }
    },
    {
      "doubleSided": true,
      "name": "coffee_mat",
      "normalTexture": {
        "index": 15
      },
      "occlusionTexture": {
        "index": 14
      },
      "pbrMetallicRoughness": {
        "baseColorTexture": {
          "index": 13
        },
        "metallicFactor": 0.0,
        "metallicRoughnessTexture": {
          "index": 14
        }
      }
    },
    {
      "doubleSided": true,
      "name": "two_chairs_mat",
      "normalTexture": {
        "index": 18
      },
      "occlusionTexture": {
        "index": 17
      },
      "pbrMetallicRoughness": {
        "baseColorTexture": {
          "index": 16
        },
        "metallicRoughnessTexture": {
          "index": 17
        }
      }
    },
    {
      "doubleSided": true,
      "name": "unbtn_chair_mat",
      "normalTexture": {
        "index": 21
      },
      "occlusionTexture": {
        "index": 20
      },
      "pbrMetallicRoughness": {
        "baseColorTexture": {
          "index": 19
        },
        "metallicFactor": 0.0,
        "metallicRoughnessTexture": {
          "index": 20
        }
      }
    },
    {
      "doubleSided": true,
      "name": "curtains_mat",
      "normalTexture": {
        "index": 24
      },
      "occlusionTexture": {
        "index": 23
      },
      "pbrMetallicRoughness": {
        "baseColorTexture": {
          "index": 22
        },
        "metallicRoughnessTexture": {
          "index": 23
        }
      }
    },
    {
      "doubleSided": true,
      "name": "lamps_mat",
      "normalTexture": {
        "index": 27
      },
      "occlusionTexture": {
        "index": 26
      },
      "pbrMetallicRoughness": {
        "baseColorTexture": {
          "index": 25
        },
        "metallicRoughnessTexture": {
          "index": 26
        }
      }
    }
  ],
  "meshes": [
    {
      "name": "floor_floor_mat_0",
      "primitives": [
        {
          "attributes": {
            "NORMAL": 1,
            "POSITION": 0,
            "TANGENT": 2,
            "TEXCOORD_0": 3
          },
          "indices": 4,
          "material": 0,
          "mode": 4
        }
      ]
    },
    {
      "name": "polySurface46_Table_mat_0",
      "primitives": [
        {
          "attributes": {
            "NORMAL": 6,
            "POSITION": 5,
            "TANGENT": 7,
            "TEXCOORD_0": 8
          },
          "indices": 9,
          "material": 1,
          "mode": 4
        }
      ]
    },
    {
      "name": "polySurface45_Table_mat_0",
      "primitives": [
        {
          "attributes": {
            "NORMAL": 11,
            "POSITION": 10,
            "TANGENT": 12,
            "TEXCOORD_0": 13
          },
          "indices": 14,
          "material": 1,
          "mode": 4
        }
      ]
    },
    {
      "name": "polySurface44_Table_mat_0",
      "primitives": [
        {
          "attributes": {
            "NORMAL": 16,
            "POSITION": 15,
            "TANGENT": 17,
            "TEXCOORD_0": 18
          },
          "indices": 19,
          "material": 1,
          "mode": 4
        }
      ]
    },
    {
      "name": "polySurface40_Table_mat_0",
      "primitives": [
        {
          "attributes": {
            "NORMAL": 21,
            "POSITION": 20,
            "TANGENT": 22,
            "TEXCOORD_0": 23
          },
          "indices": 24,
          "material": 1,
          "mode": 4
        }
      ]
    },
    {
      "name": "polySurface41_Table_mat_0",
      "primitives": [
        {
          "attributes": {
            "NORMAL": 26,
            "POSITION": 25,
            "TANGENT": 27,
            "TEXCOORD_0": 28
          },
          "indices": 29,
          "material": 1,
          "mode": 4
        }
      ]
    },
    {
      "name": "polySurface42_Table_mat_0",
      "primitives": [
        {
          "attributes": {
            "NORMAL": 31,
            "POSITION": 30,
            "TANGENT": 32,
            "TEXCOORD_0": 33
          },
          "indices": 34,
          "material": 1,
          "mode": 4
        }
      ]
    },
    {
      "name": "ring_lp_ring_mat_0",
      "primitives": [
        {
          "attributes": {
            "NORMAL": 36,
            "POSITION": 35,
            "TANGENT": 37,
            "TEXCOORD_0": 38
          },
          "indices": 39,
          "material": 2,
          "mode": 4
        }
      ]
    },
    {
      "name": "polySurface50_statue_mat_0",
      "primitives": [
        {
          "attributes": {
            "NORMAL": 41,
            "POSITION": 40,
            "TANGENT": 42,
            "TEXCOORD_0": 43
          },
          "indices": 44,
          "material": 3,
          "mode": 4
        }
      ]
    },
    {
      "name": "polySurface51_statue_mat_0",
      "primitives": [
        {
          "attributes": {
            "NORMAL": 46,
            "POSITION": 45,
            "TANGENT": 47,
            "TEXCOORD_0": 48
          },
          "indices": 49,
          "material": 3,
          "mode": 4
        }
      ]
    },
    {
      "name": "polySurface52_statue_mat_0",
      "primitives": [
        {
          "attributes": {
            "NORMAL": 51,
            "POSITION": 50,
            "TANGENT": 52,
            "TEXCOORD_0": 53
          },
          "indices": 54,
          "material": 3,
          "mode": 4
        }
      ]
    },
    {
      "name": "coffee_lp_coffee_mat_0",
      "primitives": [
        {
          "attributes": {
            "NORMAL": 56,
            "POSITION": 55,
            "TANGENT": 57,
            "TEXCOORD_0": 58
          },
          "indices": 59,
          "material": 4,
          "mode": 4
        }
      ]
    },
    {
      "name": "Chair_back_lp_two_chairs_mat_0",
      "primitives": [
        {
          "attributes": {
            "NORMAL": 61,
            "POSITION": 60,
            "TANGENT": 62,
            "TEXCOORD_0": 63
          },
          "indices": 64,
          "material": 5,
          "mode": 4
        }
      ]
    },
    {
      "name": "Chair_seat_lp1_two_chairs_mat_0",
      "primitives": [
        {
          "attributes": {
            "NORMAL": 66,
            "POSITION": 65,
            "TANGENT": 67,
            "TEXCOORD_0": 68
          },
          "indices": 69,
          "material": 5,
          "mode": 4
        }
      ]
    },
    {
      "name": "Chair_underseat_lp_two_chairs_mat_0",
      "primitives": [
        {
          "attributes": {
            "NORMAL": 71,
            "POSITION": 70,
            "TANGENT": 72,
            "TEXCOORD_0": 73
          },
          "indices": 74,
          "material": 5,
          "mode": 4
        }
      ]
    },
    {
      "name": "Chair_left_leg_front_lp_two_chairs_mat_0",
      "primitives": [
        {
          "attributes": {
            "NORMAL": 76,
            "POSITION": 75,
            "TANGENT": 77,
            "TEXCOORD_0": 78
          },
          "indices": 79,
          "material": 5,
          "mode": 4
        }
      ]
    },
    {
      "name": "chair_left_arm_lp_two_chairs_mat_0",
      "primitives": [
        {
          "attributes": {
            "NORMAL": 81,
            "POSITION": 80,
            "TANGENT": 82,
            "TEXCOORD_0": 83
          },
          "indices": 84,
          "material": 5,
          "mode": 4
        }
      ]
    },
    {
      "name": "Chair_left_leg_back_lp_two_chairs_mat_0",
      "primitives": [
        {
          "attributes": {
            "NORMAL": 86,
            "POSITION": 85,
            "TANGENT": 87,
            "TEXCOORD_0": 88
          },
          "indices": 89,
          "material": 5,
          "mode": 4
        }
      ]
    },
    {
      "name": "chair_right_arm_lp_two_chairs_mat_0",
      "primitives": [
        {
          "attributes": {
            "NORMAL": 91,
            "POSITION": 90,
            "TANGENT": 92,
            "TEXCOORD_0": 93
          },
          "indices": 94,
          "material": 5,
          "mode": 4
        }
      ]
    },
    {
      "name": "Chair_right_leg_back_lp_two_chairs_mat_0",
      "primitives": [
        {
          "attributes": {
            "NORMAL": 96,
            "POSITION": 95,
            "TANGENT": 97,
            "TEXCOORD_0": 98
          },
          "indices": 99,
          "material": 5,
          "mode": 4
        }
      ]
    },
    {
      "name": "Chair_right_leg_front_lp1_two_chairs_mat_0",
      "primitives": [
        {
          "attributes": {
            "NORMAL": 101,
            "POSITION": 100,
            "TANGENT": 102,
            "TEXCOORD_0": 103
          },
          "indices": 104,
          "material": 5,
          "mode": 4
        }
      ]
    },
    {
      "name": "chair_right_arm_lp_two_chairs_mat_0",
      "primitives": [
        {
          "attributes": {
            "NORMAL": 106,
            "POSITION": 105,
            "TANGENT": 107,
            "TEXCOORD_0": 108
          },
          "indices": 109,
          "material": 5,
          "mode": 4
        }
      ]
    },
    {
      "name": "Chair_left_leg_front_lp_two_chairs_mat_0",
      "primitives": [
        {
          "attributes": {
            "NORMAL": 111,
            "POSITION": 110,
            "TANGENT": 112,
            "TEXCOORD_0": 113
          },
          "indices": 114,
          "material": 5,
          "mode": 4
        }
      ]
    },
    {
      "name": "Chair_right_leg_back_lp_two_chairs_mat_0",
      "primitives": [
        {
          "attributes": {
            "NORMAL": 116,
            "POSITION": 115,
            "TANGENT": 117,
            "TEXCOORD_0": 118
          },
          "indices": 119,
          "material": 5,
          "mode": 4
        }
      ]
    },
    {
      "name": "Chair_left_leg_back_lp_two_chairs_mat_0",
      "primitives": [
        {
          "attributes": {
            "NORMAL": 121,
            "POSITION": 120,
            "TANGENT": 122,
            "TEXCOORD_0": 123
          },
          "indices": 124,
          "material": 5,
          "mode": 4
        }
      ]
    },
    {
      "name": "Chair_right_leg_front_lp_two_chairs_mat_0",
      "primitives": [
        {
          "attributes": {
            "NORMAL": 126,
            "POSITION": 125,
            "TANGENT": 127,
            "TEXCOORD_0": 128
          },
          "indices": 129,
          "material": 5,
          "mode": 4
        }
      ]
    },
    {
      "name": "chair_left_arm_lp_two_chairs_mat_0",
      "primitives": [
        {
          "attributes": {
            "NORMAL": 131,
            "POSITION": 130,
            "TANGENT": 132,
            "TEXCOORD_0": 133
          },
          "indices": 134,
          "material": 5,
          "mode": 4
        }
      ]
    },
    {
      "name": "chair_back_lp_two_chairs_mat_0",
      "primitives": [
        {
          "attributes": {
            "NORMAL": 136,
            "POSITION": 135,
            "TANGENT": 137,
            "TEXCOORD_0": 138
          },
          "indices": 139,
          "material": 5,
          "mode": 4
        }
      ]
    },
    {
      "name": "Chair_seat_lp_two_chairs_mat_0",
      "primitives": [
        {
          "attributes": {
            "NORMAL": 141,
            "POSITION": 140,
            "TANGENT": 142,
            "TEXCOORD_0": 143
          },
          "indices": 144,
          "material": 5,
          "mode": 4
        }
      ]
    },
    {
      "name": "Chair_underseat_lp_two_chairs_mat_0",
      "primitives": [
        {
          "attributes": {
            "NORMAL": 146,
            "POSITION": 145,
            "TANGENT": 147,
            "TEXCOORD_0": 148
          },
          "indices": 149,
          "material": 5,
          "mode": 4
        }
      ]
    },
    {
      "name": "chair_seat_lp_unbtn_chair_mat_0",
      "primitives": [
        {
          "attributes": {
            "NORMAL": 151,
            "POSITION": 150,
            "TANGENT": 152,
            "TEXCOORD_0": 153
          },
          "indices": 154,
          "material": 6,
          "mode": 4
        }
      ]
    },
    {
      "name": "Chair_underseat_lp1_unbtn_chair_mat_0",
      "primitives": [
        {
          "attributes": {
            "NORMAL": 156,
            "POSITION": 155,
            "TANGENT": 157,
            "TEXCOORD_0": 158
          },
          "indices": 159,
          "material": 6,
          "mode": 4
        }
      ]
    },
    {
      "name": "Chair_right_arm_lp_unbtn_chair_mat_0",
      "primitives": [
        {
          "attributes": {
            "NORMAL": 161,
            "POSITION": 160,
            "TANGENT": 162,
            "TEXCOORD_0": 163
          },
          "indices": 164,
          "material": 6,
          "mode": 4
        }
      ]
    },
    {
      "name": "Chair_right_leg_front_lp_unbtn_chair_mat_0",
      "primitives": [
        {
          "attributes": {
            "NORMAL": 166,
            "POSITION": 165,
            "TANGENT": 167,
            "TEXCOORD_0": 168
          },
          "indices": 169,
          "material": 6,
          "mode": 4
        }
      ]
    },
    {
      "name": "Chair_left_leg_front_lp_unbtn_chair_mat_0",
      "primitives": [
        {
          "attributes": {
            "NORMAL": 171,
            "POSITION": 170,
            "TANGENT": 172,
            "TEXCOORD_0": 173
          },
          "indices": 174,
          "material": 6,
          "mode": 4
        }
      ]
    },
    {
      "name": "Chair_left_arm_lp_unbtn_chair_mat_0",
      "primitives": [
        {
          "attributes": {
            "NORMAL": 176,
            "POSITION": 175,
            "TANGENT": 177,
            "TEXCOORD_0": 178
          },
          "indices": 179,
          "material": 6,
          "mode": 4
        }
      ]
    },
    {
      "name": "chair_back_lp_unbtn_chair_mat_0",
      "primitives": [
        {
          "attributes": {
            "NORMAL": 181,
            "POSITION": 180,
            "TANGENT": 182,
            "TEXCOORD_0": 183
          },
          "indices": 184,
          "material": 6,
          "mode": 4
        }
      ]
    },
    {
      "name": "Chair_right_leg_back_lp_unbtn_chair_mat_0",
      "primitives": [
        {
          "attributes": {
            "NORMAL": 186,
            "POSITION": 185,
            "TANGENT": 187,
            "TEXCOORD_0": 188
          },
          "indices": 189,
          "material": 6,
          "mode": 4
        }
      ]
    },
    {
      "name": "Chair_left_leg_back_lp_unbtn_chair_mat_0",
      "primitives": [
        {
          "attributes": {
            "NORMAL": 191,
            "POSITION": 190,
            "TANGENT": 192,
            "TEXCOORD_0": 193
          },
          "indices": 194,
          "material": 6,
          "mode": 4
        }
      ]
    },
    {
      "name": "curtain1_lp_curtains_mat_0",
      "primitives": [
        {
          "attributes": {
            "NORMAL": 196,
            "POSITION": 195,
            "TANGENT": 197,
            "TEXCOORD_0": 198
          },
          "indices": 199,
          "material": 7,
          "mode": 4
        }
      ]
    },
    {
      "name": "curtain2_lp_curtains_mat_0",
      "primitives": [
        {
          "attributes": {
            "NORMAL": 201,
            "POSITION": 200,
            "TANGENT": 202,
            "TEXCOORD_0": 203
          },
          "indices": 204,
          "material": 7,
          "mode": 4
        }
      ]
    },
    {
      "name": "curtain3_lp_curtains_mat_0",
      "primitives": [
        {
          "attributes": {
            "NORMAL": 206,
            "POSITION": 205,
            "TANGENT": 207,
            "TEXCOORD_0": 208
          },
          "indices": 209,
          "material": 7,
          "mode": 4
        }
      ]
    },
    {
      "name": "curtain4_lp_curtains_mat_0",
      "primitives": [
        {
          "attributes": {
            "NORMAL": 211,
            "POSITION": 210,
            "TANGENT": 212,
            "TEXCOORD_0": 213
          },
          "indices": 214,
          "material": 7,
          "mode": 4
        }
      ]
    },
    {
      "name": "Lamp1_lp_lamps_mat_0",
      "primitives": [
        {
          "attributes": {
            "NORMAL": 216,
            "POSITION": 215,
            "TANGENT": 217,
            "TEXCOORD_0": 218
          },
          "indices": 219,
          "material": 8,
          "mode": 4
        }
      ]
    },
    {
      "name": "Lamp2_lp_lamps_mat_0",
      "primitives": [
        {
          "attributes": {
            "NORMAL": 221,
            "POSITION": 220,
            "TANGENT": 222,
            "TEXCOORD_0": 223
          },
          "indices": 224,
          "material": 8,
          "mode": 4
        }
      ]
    }
  ],
  "nodes": [
    {
      "children": [
        1
      ],
      "matrix": [
        1.0,
        0.0,
        0.0,
        0.0,
        0.0,
        2.220446049250313e-16,
        -1.0,
        0.0,
        0.0,
        1.0,
        2.220446049250313e-16,
        0.0,
        0.0,
        0.0,
        0.0,
        1.0
      ],
      "name": "Sketchfab_model"
    },
    {
      "children": [
        2
      ],
      "matrix": [
        1.0,
        0.0,
        0.0,
        0.0,
        0.0,
        0.0,
        1.0,
        0.0,
        0.0,
        -1.0,
        0.0,
        0.0,
        0.0,
        0.0,
        0.0,
        1.0
      ],
      "name": "75d3fd9cf02a49bbb501c4891ddb1d95.fbx"
    },
    {
      "children": [
        3,
        5,
        19,
        22,
        30,
        33,
        73,
        93,
        103
      ],
      "name": "RootNode"
    },
    {
      "children": [
        4
      ],
      "name": "floor"
    },
    {
      "mesh": 0,
      "name": "floor_floor_mat_0"
    },
    {
      "children": [
        6
      ],
      "name": "Table"
    },
    {
      "children": [
        7,
        9,
        11,
        13,
        15,
        17
      ],
      "name": "table_lp"
    },
    {
      "children": [
        8
      ],
      "name": "polySurface46"
    },
    {
      "mesh": 1,
      "name": "polySurface46_Table_mat_0"
    },
    {
      "children": [
        10
      ],
      "name": "polySurface45"
    },
    {
      "mesh": 2,
      "name": "polySurface45_Table_mat_0"
    },
    {
      "children": [
        12
      ],
      "name": "polySurface44"
    },
    {
      "mesh": 3,
      "name": "polySurface44_Table_mat_0"
    },
    {
      "children": [
        14
      ],
      "name": "polySurface40"
    },
    {
      "mesh": 4,
      "name": "polySurface40_Table_mat_0"
    },
    {
      "children": [
        16
      ],
      "name": "polySurface41"
    },
    {
      "mesh": 5,
      "name": "polySurface41_Table_mat_0"
    },
    {
      "children": [
        18
      ],
      "name": "polySurface42"
    },
    {
      "mesh": 6,
      "name": "polySurface42_Table_mat_0"
    },
    {
      "children": [
        20
      ],
      "name": "ring"
    },
    {
      "children": [
        21
      ],
      "name": "ring_lp"
    },
    {
      "mesh": 7,
      "name": "ring_lp_ring_mat_0"
    },
    {
      "children": [
        23
      ],
      "name": "statue"
    },
    {
      "children": [
        24,
        26,
        28
      ],
      "name": "statue_lp"
    },
    {
      "children": [
        25
      ],
      "name": "polySurface50"
    },
    {
      "mesh": 8,
      "name": "polySurface50_statue_mat_0"
    },
    {
      "children": [
        27
      ],
      "name": "polySurface51"
    },
    {
      "mesh": 9,
      "name": "polySurface51_statue_mat_0"
    },
    {
      "children": [
        29
      ],
      "name": "polySurface52"
    },
    {
      "mesh": 10,
      "name": "polySurface52_statue_mat_0"
    },
    {
      "children": [
        31
      ],
      "name": "coffee"
    },
    {
      "children": [
        32
      ],
      "name": "coffee_lp"
    },
    {
      "mesh": 11,
      "name": "coffee_lp_coffee_mat_0"
    },
    {
      "children": [
        34
      ],
      "name": "two_chairs"
    },
    {
      "children": [
        35,
        54
      ],
      "name": "two_chairs_lp"
    },
    {
      "children": [
        36,
        38,
        40,
        42,
        44,
        46,
        48,
        50,
        52
      ],
      "name": "Left_armchair_lp"
    },
    {
      "children": [
        37
      ],
      "name": "Chair_back_lp"
    },
    {
      "mesh": 12,
      "name": "Chair_back_lp_two_chairs_mat_0"
    },
    {
      "children": [
        39
      ],
      "name": "Chair_seat_lp1"
    },
    {
      "mesh": 13,
      "name": "Chair_seat_lp1_two_chairs_mat_0"
    },
    {
      "children": [
        41
      ],
      "name": "Chair_underseat_lp"
    },
    {
      "mesh": 14,
      "name": "Chair_underseat_lp_two_chairs_mat_0"
    },
    {
      "children": [
        43
      ],
      "name": "Chair_left_leg_front_lp"
    },
    {
      "mesh": 15,
      "name": "Chair_left_leg_front_lp_two_chairs_mat_0"
    },
    {
      "children": [
        45
      ],
      "name": "chair_left_arm_lp"
    },
    {
      "mesh": 16,
      "name": "chair_left_arm_lp_two_chairs_mat_0"
    },
    {
      "children": [
        47
      ],
      "name": "Chair_left_leg_back_lp"
    },
    {
      "mesh": 17,
      "name": "Chair_left_leg_back_lp_two_chairs_mat_0"
    },
    {
      "children": [
        49
      ],
      "name": "chair_right_arm_lp"
    },
    {
      "mesh": 18,
      "name": "chair_right_arm_lp_two_chairs_mat_0"
    },
    {
      "children": [
        51
      ],
      "name": "Chair_right_leg_back_lp"
    },
    {
      "mesh": 19,
      "name": "Chair_right_leg_back_lp_two_chairs_mat_0"
    },
    {
      "children": [
        53
      ],
      "name": "Chair_right_leg_front_lp1"
    },
    {
      "mesh": 20,
      "name": "Chair_right_leg_front_lp1_two_chairs_mat_0"
    },
    {
      "children": [
        55,
        57,
        59,
        61,
        63,
        65,
        67,
        69,
        71
      ],
      "name": "right_armchair_lp"
    },
    {
      "children": [
        56
      ],
      "name": "chair_right_arm_lp"
    },
    {
      "mesh": 21,
      "name": "chair_right_arm_lp_two_chairs_mat_0"
    },
    {
      "children": [
        58
      ],
      "name": "Chair_left_leg_front_lp"
    },
    {
      "mesh": 22,
      "name": "Chair_left_leg_front_lp_two_chairs_mat_0"
    },
    {
      "children": [
        60
      ],
      "name": "Chair_right_leg_back_lp"
    },
    {
      "mesh": 23,
      "name": "Chair_right_leg_back_lp_two_chairs_mat_0"
    },
    {
      "children": [
        62
      ],
      "name": "Chair_left_leg_back_lp"
    },
    {
      "mesh": 24,
      "name": "Chair_left_leg_back_lp_two_chairs_mat_0"
    },
    {
      "children": [
        64
      ],
      "name": "Chair_right_leg_front_lp"
    },
    {
      "mesh": 25,
      "name": "Chair_right_leg_front_lp_two_chairs_mat_0"
    },
    {
      "children": [
        66
      ],
      "name": "chair_left_arm_lp"
    },
    {
      "mesh": 26,
      "name": "chair_left_arm_lp_two_chairs_mat_0"
    },
    {
      "children": [
        68
      ],
      "name": "chair_back_lp"
    },
    {
      "mesh": 27,
      "name": "chair_back_lp_two_chairs_mat_0"
    },
    {
      "children": [
        70
      ],
      "name": "Chair_seat_lp"
    },
    {
      "mesh": 28,
      "name": "Chair_seat_lp_two_chairs_mat_0"
    },
    {
      "children": [
        72
      ],
      "name": "Chair_underseat_lp"
    },
    {
      "mesh": 29,
      "name": "Chair_underseat_lp_two_chairs_mat_0"
    },
    {
      "children": [
        74
      ],
      "name": "chair_unbtn"
    },
    {
      "children": [
        75,
        77,
        79,
        81,
        83,
        85,
        87,
        89,
        91
      ],
      "name": "armchair_lp"
    },
    {
      "children": [
        76
      ],
      "name": "chair_seat_lp"
    },
    {
      "mesh": 30,
      "name": "chair_seat_lp_unbtn_chair_mat_0"
    },
    {
      "children": [
        78
      ],
      "name": "Chair_underseat_lp1"
    },
    {
      "mesh": 31,
      "name": "Chair_underseat_lp1_unbtn_chair_mat_0"
    },
    {
      "children": [
        80
      ],
      "name": "Chair_right_arm_lp"
    },
    {
      "mesh": 32,
      "name": "Chair_right_arm_lp_unbtn_chair_mat_0"
    },
    {
      "children": [
        82
      ],
      "name": "Chair_right_leg_front_lp"
    },
    {
      "mesh": 33,
      "name": "Chair_right_leg_front_lp_unbtn_chair_mat_0"
    },
    {
      "children": [
        84
      ],
      "name": "Chair_left_leg_front_lp"
    },
    {
      "mesh": 34,
      "name": "Chair_left_leg_front_lp_unbtn_chair_mat_0"
    },
    {
      "children": [
        86
      ],
      "name": "Chair_left_arm_lp"
    },
    {
      "mesh": 35,
      "name": "Chair_left_arm_lp_unbtn_chair_mat_0"
    },
    {
      "children": [
        88
      ],
      "name": "chair_back_lp"
    },
    {
      "mesh": 36,
      "name": "chair_back_lp_unbtn_chair_mat_0"
    },
    {
      "children": [
        90
      ],
      "name": "Chair_right_leg_back_lp"
    },
    {
      "mesh": 37,
      "name": "Chair_right_leg_back_lp_unbtn_chair_mat_0"
    },
    {
      "children": [
        92
      ],
      "name": "Chair_left_leg_back_lp"
    },
    {
      "mesh": 38,
      "name": "Chair_left_leg_back_lp_unbtn_chair_mat_0"
    },
    {
      "children": [
        94
      ],
      "name": "curtains"
    },
    {
      "children": [
        95,
        97,
        99,
        101
      ],
      "name": "curtains_lp"
    },
    {
      "children": [
        96
      ],
      "name": "curtain1_lp"
    },
    {
      "mesh": 39,
      "name": "curtain1_lp_curtains_mat_0"
    },
    {
      "children": [
        98
      ],
      "name": "curtain2_lp"
    },
    {
      "mesh": 40,
      "name": "curtain2_lp_curtains_mat_0"
    },
    {
      "children": [
        100
      ],
      "name": "curtain3_lp"
    },
    {
      "mesh": 41,
      "name": "curtain3_lp_curtains_mat_0"
    },
    {
      "children": [
        102
      ],
      "name": "curtain4_lp"
    },
    {
      "mesh": 42,
      "name": "curtain4_lp_curtains_mat_0"
    },
    {
      "children": [
        104
      ],
      "name": "lamps"
    },
    {
      "children": [
        105,
        107
      ],
      "name": "lamps_lp"
    },
    {
      "children": [
        106
      ],
      "name": "Lamp1_lp"
    },
    {
      "mesh": 43,
      "name": "Lamp1_lp_lamps_mat_0"
    },
    {
      "children": [
        108
      ],
      "name": "Lamp2_lp"
    },
    {
      "mesh": 44,
      "name": "Lamp2_lp_lamps_mat_0"
    }
  ],
  "samplers": [
    {
      "magFilter": 9729,
      "minFilter": 9987,
      "wrapS": 10497,
      "wrapT": 10497
    }
  ],
  "scene": 0,
  "scenes": [
    {
      "name": "Sketchfab_Scene",
      "nodes": [
        0
      ]
    }
  ],
  "textures": [
    {
      "sampler": 0,
      "source": 0
    },
    {
      "sampler": 0,
      "source": 1
    },
    {
      "sampler": 0,
      "source": 2
    },
    {
      "sampler": 0,
      "source": 3
    },
    {
      "sampler": 0,
      "source": 4
    },
    {
      "sampler": 0,
      "source": 5
    },
    {
      "sampler": 0,
      "source": 6
    },
    {
      "sampler": 0,
      "source": 7
    },
    {
      "sampler": 0,
      "source": 8
    },
    {
      "sampler": 0,
      "source": 9
    },
    {
      "sampler": 0,
      "source": 10
    },
    {
      "sampler": 0,
      "source": 11
    },
    {
      "sampler": 0,
      "source": 12
    },
    {
      "sampler": 0,
      "source": 13
    },
    {
      "sampler": 0,
      "source": 14
    },
    {
      "sampler": 0,
      "source": 15
    },
    {
      "sampler": 0,
      "source": 16
    },
    {
      "sampler": 0,
      "source": 17
    },
    {
      "sampler": 0,
      "source": 18
    },
    {
      "sampler": 0,
      "source": 19
    },
    {
      "sampler": 0,
      "source": 20
    },
    {
      "sampler": 0,
      "source": 21
    },
    {
      "sampler": 0,
      "source": 22
    },
    {
      "sampler": 0,
      "source": 23
    },
    {
      "sampler": 0,
      "source": 24
    },
    {
      "sampler": 0,
      "source": 25
    },
    {
      "sampler": 0,
      "source": 26
    },
    {
      "sampler": 0,
      "source": 27
    }
  ]
}
